<svg id="dropicon" data-name="Group 1" xmlns="http://www.w3.org/2000/svg" viewBox="0 0 191.2 97.9">
  <path class="cls-1" fill="rgb(0, 70, 180)" d="M51.5,33H3.5A3.543,3.543,0,0,0,0,36.5v35A3.543,3.543,0,0,0,3.5,75h48A3.543,3.543,0,0,0,55,71.5v-35A3.543,3.543,0,0,0,51.5,33Zm-48,3h48a.472.472,0,0,1,.5.5V67.1L40.5,55.4a2.94,2.94,0,0,0-2.2-.9h0a3.1,3.1,0,0,0-2.2.9l-4.7,5-11.8-12a2.94,2.94,0,0,0-2.2-.9h0a3.1,3.1,0,0,0-2.2.9L3,60.8V36.5A.472.472,0,0,1,3.5,36ZM3,71.5V63.7L16.7,49.9a1.08,1.08,0,0,1,.7-.3h0a.908.908,0,0,1,.7.3L40.2,72H3.5A.472.472,0,0,1,3,71.5Zm48.5.5H42.9c0-.1-.1-.1-.1-.2l-9.9-10,4.7-5a.908.908,0,0,1,.7-.3h0a.779.779,0,0,1,.7.3L52,70v1.5A.472.472,0,0,1,51.5,72Z"></path>
  <path class="cls-1" fill="rgb(0, 70, 180)" d="M41.8,51.3h0a5.664,5.664,0,0,0,4.1-1.7,5.835,5.835,0,0,0,1.7-4.1,5.957,5.957,0,0,0-5.8-5.9h0a5.85,5.85,0,0,0,0,11.7Zm-2.7-8.5a3.864,3.864,0,0,1,2.7-1.1h0a3.8,3.8,0,0,1,3.8,3.8,3.756,3.756,0,0,1-3.8,3.8h0A3.8,3.8,0,0,1,38,45.5,3.864,3.864,0,0,1,39.1,42.8Z"></path>
  <path class="cls-1" fill="rgb(0, 70, 180)" d="M187.3,35H160.1l-7.5-6.8a4.713,4.713,0,0,0-3-1.2H134.3a3.159,3.159,0,0,0-3.2,3.2V70.3a3.691,3.691,0,0,0,3.7,3.7h52.7a3.691,3.691,0,0,0,3.7-3.7V38.7A3.933,3.933,0,0,0,187.3,35Zm-53.1-5h15.3a1.284,1.284,0,0,1,1,.4l5.1,4.6H134V30.2A.215.215,0,0,1,134.2,30ZM188,70.3a.684.684,0,0,1-.7.7H134.6a.684.684,0,0,1-.7-.7V38h53.3a.684.684,0,0,1,.7.7V70.3Z"></path>
  <path class="cls-1" fill="rgb(0, 70, 180)" d="M100.4,86,93,93.4V55.7a1.5,1.5,0,0,0-3,0V93.4L82.6,86a1.449,1.449,0,0,0-2.1,0,1.541,1.541,0,0,0,0,2.1L89.4,97a2.878,2.878,0,0,0,2.1.9,2.723,2.723,0,0,0,2.1-.9l8.9-8.9a1.485,1.485,0,0,0-2.1-2.1Z"></path>
  <path class="cls-1" fill="rgb(0, 70, 180)" d="M119.5,26a1.538,1.538,0,0,0-1.5,1.5V71.2a.86.86,0,0,1-.8.8H97.5a1.5,1.5,0,0,0,0,3h19.7a3.8,3.8,0,0,0,3.8-3.8V27.5A1.538,1.538,0,0,0,119.5,26Z"></path>
  <path class="cls-1" fill="rgb(0, 70, 180)" d="M121,21.4a.749.749,0,0,0-.1-.5h0c-.1-.2-.2-.3-.3-.5h0L99.6.4h0a2.186,2.186,0,0,0-.5-.3h0a1.486,1.486,0,0,0-.6-.1H67.8A3.8,3.8,0,0,0,64,3.8V71.2A3.8,3.8,0,0,0,67.8,75H85.5a1.5,1.5,0,0,0,0-3H67.8a.86.86,0,0,1-.8-.8V3.8a.86.86,0,0,1,.8-.8H97V19.2a3.8,3.8,0,0,0,3.8,3.8h19c.1,0,.2,0,.2-.1h.1c.1,0,.2-.1.3-.1l.1-.1c.1,0,.1-.1.2-.1h0a2.186,2.186,0,0,0,.3-.5v-.7Zm-21-2.2V5l15.7,15h-15A.858.858,0,0,1,100,19.2Z"></path>
</svg>